<mxfile host="app.diagrams.net" agent="Mozilla/5.0 (Macintosh; Intel Mac OS X 10_15_7) AppleWebKit/605.1.15 (KHTML, like Gecko) Version/17.1 Safari/605.1.15" version="26.0.16">
  <diagram name="第 1 页" id="S_DOHxgkvTicNY2r4Wlw">
    <mxGraphModel dx="1434" dy="827" grid="1" gridSize="10" guides="1" tooltips="1" connect="1" arrows="1" fold="1" page="1" pageScale="1" pageWidth="900" pageHeight="300" math="0" shadow="0">
      <root>
        <mxCell id="0" />
        <mxCell id="1" parent="0" />
        <mxCell id="Ve9kSnBsCGdqvAtj8gR6-6" style="edgeStyle=orthogonalEdgeStyle;rounded=0;orthogonalLoop=1;jettySize=auto;html=1;strokeWidth=2;" edge="1" parent="1" source="Ve9kSnBsCGdqvAtj8gR6-1" target="Ve9kSnBsCGdqvAtj8gR6-4">
          <mxGeometry relative="1" as="geometry" />
        </mxCell>
        <mxCell id="Ve9kSnBsCGdqvAtj8gR6-1" value="1" style="ellipse;whiteSpace=wrap;html=1;aspect=fixed;strokeWidth=2;fontSize=16;" vertex="1" parent="1">
          <mxGeometry x="150" y="60" width="50" height="50" as="geometry" />
        </mxCell>
        <mxCell id="Ve9kSnBsCGdqvAtj8gR6-2" value="S" style="ellipse;whiteSpace=wrap;html=1;aspect=fixed;strokeWidth=2;fontSize=16;" vertex="1" parent="1">
          <mxGeometry x="40" y="130" width="50" height="50" as="geometry" />
        </mxCell>
        <mxCell id="Ve9kSnBsCGdqvAtj8gR6-10" style="edgeStyle=orthogonalEdgeStyle;rounded=0;orthogonalLoop=1;jettySize=auto;html=1;entryX=0;entryY=0.5;entryDx=0;entryDy=0;strokeWidth=2;" edge="1" parent="1" source="Ve9kSnBsCGdqvAtj8gR6-3" target="Ve9kSnBsCGdqvAtj8gR6-5">
          <mxGeometry relative="1" as="geometry" />
        </mxCell>
        <mxCell id="Ve9kSnBsCGdqvAtj8gR6-3" value="2" style="ellipse;whiteSpace=wrap;html=1;aspect=fixed;strokeWidth=2;fontSize=16;" vertex="1" parent="1">
          <mxGeometry x="150" y="190" width="50" height="50" as="geometry" />
        </mxCell>
        <mxCell id="Ve9kSnBsCGdqvAtj8gR6-4" value="3" style="ellipse;whiteSpace=wrap;html=1;aspect=fixed;strokeWidth=2;fontSize=16;" vertex="1" parent="1">
          <mxGeometry x="290" y="60" width="50" height="50" as="geometry" />
        </mxCell>
        <mxCell id="Ve9kSnBsCGdqvAtj8gR6-44" style="rounded=0;orthogonalLoop=1;jettySize=auto;html=1;entryX=0;entryY=1;entryDx=0;entryDy=0;strokeWidth=2;" edge="1" parent="1" source="Ve9kSnBsCGdqvAtj8gR6-5" target="Ve9kSnBsCGdqvAtj8gR6-42">
          <mxGeometry relative="1" as="geometry" />
        </mxCell>
        <mxCell id="Ve9kSnBsCGdqvAtj8gR6-5" value="4" style="ellipse;whiteSpace=wrap;html=1;aspect=fixed;strokeWidth=2;fontSize=16;" vertex="1" parent="1">
          <mxGeometry x="290" y="190" width="50" height="50" as="geometry" />
        </mxCell>
        <mxCell id="Ve9kSnBsCGdqvAtj8gR6-11" style="rounded=0;orthogonalLoop=1;jettySize=auto;html=1;entryX=-0.02;entryY=0.72;entryDx=0;entryDy=0;entryPerimeter=0;strokeWidth=2;" edge="1" parent="1" source="Ve9kSnBsCGdqvAtj8gR6-2" target="Ve9kSnBsCGdqvAtj8gR6-1">
          <mxGeometry relative="1" as="geometry" />
        </mxCell>
        <mxCell id="Ve9kSnBsCGdqvAtj8gR6-12" style="rounded=0;orthogonalLoop=1;jettySize=auto;html=1;entryX=0.02;entryY=0.3;entryDx=0;entryDy=0;entryPerimeter=0;strokeWidth=2;" edge="1" parent="1" source="Ve9kSnBsCGdqvAtj8gR6-2" target="Ve9kSnBsCGdqvAtj8gR6-3">
          <mxGeometry relative="1" as="geometry" />
        </mxCell>
        <mxCell id="Ve9kSnBsCGdqvAtj8gR6-13" value="0/16" style="text;strokeColor=none;align=center;fillColor=none;html=1;verticalAlign=middle;whiteSpace=wrap;rounded=0;spacing=4;fontSize=15;" vertex="1" parent="1">
          <mxGeometry x="70" y="90" width="60" height="30" as="geometry" />
        </mxCell>
        <mxCell id="Ve9kSnBsCGdqvAtj8gR6-16" value="0/12" style="text;strokeColor=none;align=center;fillColor=none;html=1;verticalAlign=middle;whiteSpace=wrap;rounded=0;spacing=4;fontSize=15;" vertex="1" parent="1">
          <mxGeometry x="210" y="50" width="60" height="30" as="geometry" />
        </mxCell>
        <mxCell id="Ve9kSnBsCGdqvAtj8gR6-17" value="0/13" style="text;strokeColor=none;align=center;fillColor=none;html=1;verticalAlign=middle;whiteSpace=wrap;rounded=0;spacing=4;fontSize=15;" vertex="1" parent="1">
          <mxGeometry x="80" y="190" width="60" height="30" as="geometry" />
        </mxCell>
        <mxCell id="Ve9kSnBsCGdqvAtj8gR6-18" value="0/14" style="text;strokeColor=none;align=center;fillColor=none;html=1;verticalAlign=middle;whiteSpace=wrap;rounded=0;spacing=4;fontSize=15;" vertex="1" parent="1">
          <mxGeometry x="220" y="220" width="60" height="30" as="geometry" />
        </mxCell>
        <mxCell id="Ve9kSnBsCGdqvAtj8gR6-20" value="&lt;font style=&quot;font-size: 15px;&quot;&gt;（1）&lt;/font&gt;" style="text;strokeColor=none;align=center;fillColor=none;html=1;verticalAlign=middle;whiteSpace=wrap;rounded=0;" vertex="1" parent="1">
          <mxGeometry x="190" y="260" width="60" height="30" as="geometry" />
        </mxCell>
        <mxCell id="Ve9kSnBsCGdqvAtj8gR6-40" value="&lt;font style=&quot;font-size: 15px;&quot;&gt;（2）&lt;/font&gt;" style="text;strokeColor=none;align=center;fillColor=none;html=1;verticalAlign=middle;whiteSpace=wrap;rounded=0;" vertex="1" parent="1">
          <mxGeometry x="670" y="260" width="60" height="30" as="geometry" />
        </mxCell>
        <mxCell id="Ve9kSnBsCGdqvAtj8gR6-42" value="S" style="ellipse;whiteSpace=wrap;html=1;aspect=fixed;strokeWidth=2;fontSize=16;" vertex="1" parent="1">
          <mxGeometry x="390" y="125" width="50" height="50" as="geometry" />
        </mxCell>
        <mxCell id="Ve9kSnBsCGdqvAtj8gR6-43" style="rounded=0;orthogonalLoop=1;jettySize=auto;html=1;entryX=0.12;entryY=0.28;entryDx=0;entryDy=0;entryPerimeter=0;strokeWidth=2;" edge="1" parent="1" source="Ve9kSnBsCGdqvAtj8gR6-4" target="Ve9kSnBsCGdqvAtj8gR6-42">
          <mxGeometry relative="1" as="geometry" />
        </mxCell>
        <mxCell id="Ve9kSnBsCGdqvAtj8gR6-45" value="0/20" style="text;strokeColor=none;align=center;fillColor=none;html=1;verticalAlign=middle;whiteSpace=wrap;rounded=0;spacing=4;fontSize=15;" vertex="1" parent="1">
          <mxGeometry x="350" y="80" width="60" height="30" as="geometry" />
        </mxCell>
        <mxCell id="Ve9kSnBsCGdqvAtj8gR6-46" value="0/4" style="text;strokeColor=none;align=center;fillColor=none;html=1;verticalAlign=middle;whiteSpace=wrap;rounded=0;spacing=4;fontSize=15;" vertex="1" parent="1">
          <mxGeometry x="350" y="200" width="60" height="30" as="geometry" />
        </mxCell>
        <mxCell id="Ve9kSnBsCGdqvAtj8gR6-47" style="edgeStyle=orthogonalEdgeStyle;rounded=0;orthogonalLoop=1;jettySize=auto;html=1;strokeWidth=2;" edge="1" parent="1" source="Ve9kSnBsCGdqvAtj8gR6-48" target="Ve9kSnBsCGdqvAtj8gR6-52">
          <mxGeometry relative="1" as="geometry" />
        </mxCell>
        <mxCell id="Ve9kSnBsCGdqvAtj8gR6-48" value="1" style="ellipse;whiteSpace=wrap;html=1;aspect=fixed;strokeWidth=2;fontSize=16;" vertex="1" parent="1">
          <mxGeometry x="580" y="50" width="50" height="50" as="geometry" />
        </mxCell>
        <mxCell id="Ve9kSnBsCGdqvAtj8gR6-49" value="S" style="ellipse;whiteSpace=wrap;html=1;aspect=fixed;strokeWidth=2;fontSize=16;" vertex="1" parent="1">
          <mxGeometry x="470" y="120" width="50" height="50" as="geometry" />
        </mxCell>
        <mxCell id="Ve9kSnBsCGdqvAtj8gR6-50" style="edgeStyle=orthogonalEdgeStyle;rounded=0;orthogonalLoop=1;jettySize=auto;html=1;entryX=0;entryY=0.5;entryDx=0;entryDy=0;strokeWidth=2;" edge="1" parent="1" source="Ve9kSnBsCGdqvAtj8gR6-51" target="Ve9kSnBsCGdqvAtj8gR6-54">
          <mxGeometry relative="1" as="geometry" />
        </mxCell>
        <mxCell id="Ve9kSnBsCGdqvAtj8gR6-51" value="2" style="ellipse;whiteSpace=wrap;html=1;aspect=fixed;strokeWidth=2;fontSize=16;" vertex="1" parent="1">
          <mxGeometry x="580" y="180" width="50" height="50" as="geometry" />
        </mxCell>
        <mxCell id="Ve9kSnBsCGdqvAtj8gR6-52" value="3" style="ellipse;whiteSpace=wrap;html=1;aspect=fixed;strokeWidth=2;fontSize=16;" vertex="1" parent="1">
          <mxGeometry x="720" y="50" width="50" height="50" as="geometry" />
        </mxCell>
        <mxCell id="Ve9kSnBsCGdqvAtj8gR6-53" style="rounded=0;orthogonalLoop=1;jettySize=auto;html=1;entryX=0;entryY=1;entryDx=0;entryDy=0;strokeWidth=2;" edge="1" parent="1" source="Ve9kSnBsCGdqvAtj8gR6-54" target="Ve9kSnBsCGdqvAtj8gR6-61">
          <mxGeometry relative="1" as="geometry" />
        </mxCell>
        <mxCell id="Ve9kSnBsCGdqvAtj8gR6-54" value="4" style="ellipse;whiteSpace=wrap;html=1;aspect=fixed;strokeWidth=2;fontSize=16;" vertex="1" parent="1">
          <mxGeometry x="720" y="180" width="50" height="50" as="geometry" />
        </mxCell>
        <mxCell id="Ve9kSnBsCGdqvAtj8gR6-55" style="rounded=0;orthogonalLoop=1;jettySize=auto;html=1;entryX=-0.02;entryY=0.72;entryDx=0;entryDy=0;entryPerimeter=0;strokeWidth=2;" edge="1" parent="1" source="Ve9kSnBsCGdqvAtj8gR6-49" target="Ve9kSnBsCGdqvAtj8gR6-48">
          <mxGeometry relative="1" as="geometry" />
        </mxCell>
        <mxCell id="Ve9kSnBsCGdqvAtj8gR6-56" style="rounded=0;orthogonalLoop=1;jettySize=auto;html=1;entryX=0.02;entryY=0.3;entryDx=0;entryDy=0;entryPerimeter=0;strokeWidth=2;" edge="1" parent="1" source="Ve9kSnBsCGdqvAtj8gR6-49" target="Ve9kSnBsCGdqvAtj8gR6-51">
          <mxGeometry relative="1" as="geometry" />
        </mxCell>
        <mxCell id="Ve9kSnBsCGdqvAtj8gR6-57" value="12/16" style="text;strokeColor=none;align=center;fillColor=none;html=1;verticalAlign=middle;whiteSpace=wrap;rounded=0;spacing=4;fontSize=15;" vertex="1" parent="1">
          <mxGeometry x="500" y="80" width="60" height="30" as="geometry" />
        </mxCell>
        <mxCell id="Ve9kSnBsCGdqvAtj8gR6-58" value="12/12" style="text;strokeColor=none;align=center;fillColor=none;html=1;verticalAlign=middle;whiteSpace=wrap;rounded=0;spacing=4;fontSize=15;" vertex="1" parent="1">
          <mxGeometry x="640" y="40" width="60" height="30" as="geometry" />
        </mxCell>
        <mxCell id="Ve9kSnBsCGdqvAtj8gR6-59" value="4/13" style="text;strokeColor=none;align=center;fillColor=none;html=1;verticalAlign=middle;whiteSpace=wrap;rounded=0;spacing=4;fontSize=15;" vertex="1" parent="1">
          <mxGeometry x="510" y="180" width="60" height="30" as="geometry" />
        </mxCell>
        <mxCell id="Ve9kSnBsCGdqvAtj8gR6-60" value="4/14" style="text;strokeColor=none;align=center;fillColor=none;html=1;verticalAlign=middle;whiteSpace=wrap;rounded=0;spacing=4;fontSize=15;" vertex="1" parent="1">
          <mxGeometry x="650" y="210" width="60" height="30" as="geometry" />
        </mxCell>
        <mxCell id="Ve9kSnBsCGdqvAtj8gR6-61" value="S" style="ellipse;whiteSpace=wrap;html=1;aspect=fixed;strokeWidth=2;fontSize=16;" vertex="1" parent="1">
          <mxGeometry x="820" y="115" width="50" height="50" as="geometry" />
        </mxCell>
        <mxCell id="Ve9kSnBsCGdqvAtj8gR6-62" style="rounded=0;orthogonalLoop=1;jettySize=auto;html=1;entryX=0.12;entryY=0.28;entryDx=0;entryDy=0;entryPerimeter=0;strokeWidth=2;" edge="1" parent="1" source="Ve9kSnBsCGdqvAtj8gR6-52" target="Ve9kSnBsCGdqvAtj8gR6-61">
          <mxGeometry relative="1" as="geometry" />
        </mxCell>
        <mxCell id="Ve9kSnBsCGdqvAtj8gR6-63" value="12/20" style="text;strokeColor=none;align=center;fillColor=none;html=1;verticalAlign=middle;whiteSpace=wrap;rounded=0;spacing=4;fontSize=15;" vertex="1" parent="1">
          <mxGeometry x="780" y="70" width="60" height="30" as="geometry" />
        </mxCell>
        <mxCell id="Ve9kSnBsCGdqvAtj8gR6-64" value="4/4" style="text;strokeColor=none;align=center;fillColor=none;html=1;verticalAlign=middle;whiteSpace=wrap;rounded=0;spacing=4;fontSize=15;" vertex="1" parent="1">
          <mxGeometry x="780" y="190" width="60" height="30" as="geometry" />
        </mxCell>
        <mxCell id="Ve9kSnBsCGdqvAtj8gR6-65" value="最大流 = 12 + 4 = 16" style="text;strokeColor=none;align=center;fillColor=none;html=1;verticalAlign=middle;whiteSpace=wrap;rounded=0;spacing=4;fontSize=15;" vertex="1" parent="1">
          <mxGeometry x="580" width="200" height="40" as="geometry" />
        </mxCell>
      </root>
    </mxGraphModel>
  </diagram>
</mxfile>
